<?xml version="1.0" standalone="no"?>
<!DOCTYPE svg PUBLIC "-//W3C//DTD SVG 20010904//EN"
 "http://www.w3.org/TR/2001/REC-SVG-20010904/DTD/svg10.dtd">
<svg version="1.0" xmlns="http://www.w3.org/2000/svg"
 width="700.000000pt" height="700.000000pt" viewBox="0 0 700.000000 700.000000"
 preserveAspectRatio="xMidYMid meet">
<metadata>
Created by potrace 1.11, written by Peter Selinger 2001-2013
</metadata>
<g transform="translate(0.000000,700.000000) scale(0.100000,-0.100000)"
fill="#000000" stroke="none">
<path d="M4228 4595 c-1 -2 -28 -6 -58 -9 -100 -11 -237 -57 -350 -117 -197
-106 -364 -278 -462 -475 l-41 -84 -1308 0 c-1276 0 -1308 0 -1371 -20 -171
-52 -292 -219 -287 -393 5 -186 120 -336 304 -395 11 -4 615 -9 1342 -12
l1322 -5 41 -83 c124 -247 365 -457 620 -541 126 -42 195 -53 330 -56 155 -4
249 10 385 56 115 40 181 74 280 144 151 107 270 246 346 401 l42 84 468 0
c526 0 538 1 640 75 110 79 167 178 176 311 14 182 -97 347 -274 410 l-68 24
-472 0 -471 0 -30 63 c-149 318 -457 551 -811 611 -74 12 -283 21 -293 11z"/>
</g>
</svg>
